# xmcd
#
# Track frame offsets:
#	150
#	12865
#	27134
#	39472
#	51751
#	61419
#	77695
#	86866
#	99631
#	112676
#	123902
#	134203
#	144374
#	156199
#	169678
#	181970
#	192983
#	204032
#
# Disc length: 2882 seconds
#
# Revision: 4
# Processed by: cddbd v1.4PL0 Copyright (c) Steve Scherf et al.
# Submitted via: audiograbber 1.81.03
#
DISCID=e90b4012
DTITLE=Various Artist - How Long, How Long Blues - CD 3
DYEAR=2001
DGENRE=Blues
TTITLE0=Sonny Boy Williamson - Shake The Boogie
TTITLE1=John Lee Hooker - Stomp Boogie
TTITLE2=Lowell Fulsom - Stormin And Rainin
TTITLE3=Jesse Thomas - Texas Blues
TTITLE4=Lightnin' Hopkins - Henny Penny Blues
TTITLE5=John Lee Hooker - Lowdown Midnight Boogie
TTITLE6=Lightnin' Hopkins - Feel So Bad
TTITLE7=Frankie Lee Sims - Don't Forget Me
TTITLE8=Jesse Thomas - Same Old Stuff
TTITLE9=Lightnin' Hopkins - Jazz Blues
TTITLE10=Ralph Willis - Goin' To Virginia
TTITLE11=Snooky and Moody - Keep What you Got
TTITLE12=Othum Brown and Little Walter - Ora Nelle Blues
TTITLE13=Tampa Red and Johnny Jones - It's A Brand New Boogie
TTITLE14=Little Johnny Jones - Big Town Playboy
TTITLE15=Sunnyland Slim - Fly Right Little Girl
TTITLE16=Little Walter - I Just Keep Lovin' Her
TTITLE17=Muddy Waters - I Can't Be Satisfied
EXTD=ID3G:   0
EXTT0=
EXTT1=
EXTT2=
EXTT3=
EXTT4=
EXTT5=
EXTT6=
EXTT7=
EXTT8=
EXTT9=
EXTT10=
EXTT11=
EXTT12=
EXTT13=
EXTT14=
EXTT15=
EXTT16=
EXTT17=
PLAYORDER=
